<?xml version="1.0" encoding="UTF-8"?>
<svg id="Capa_2" data-name="Capa 2" xmlns="http://www.w3.org/2000/svg" viewBox="0 0 883.06 883.06">
  <defs>
    <style>
      .cls-1 {
        fill: #000;
        stroke-width: 0px;
      }
    </style>
  </defs>
  <g id="Object">
    <g>
      <g>
        <path class="cls-1" d="M136.8,555.48v-232.22h46.44c12.25,0,23.3,3.64,33.15,10.93,8.42,6.17,14.44,15.74,18.05,28.7,1.97,6.92,2.95,15.12,2.95,24.63,0,15.56-3.67,28.03-11,37.41-3.06,3.95-6.67,6.98-10.83,9.07,6.89,2.96,12.74,8.83,17.56,17.59,3.17,5.93,5.52,13.58,7.06,22.96.76,4.81,1.15,10.19,1.15,16.11,0,14.69-2.46,27.16-7.38,37.41-3.83,8.03-9.25,14.44-16.25,19.26-7.88,5.43-15.7,8.15-23.47,8.15h-57.44ZM170.28,418.08h12.96c9.63,0,16.08-5.31,19.36-15.93,1.2-3.95,1.81-8.83,1.81-14.63,0-9.63-2.08-16.91-6.24-21.85-3.83-4.57-8.81-6.85-14.93-6.85h-12.96v59.26ZM170.28,520.86h12.96c10.5,0,17.78-6.11,21.83-18.33,1.42-4.2,2.13-9.01,2.13-14.44,0-12.96-2.19-22.41-6.56-28.33-3.94-5.43-9.74-8.15-17.4-8.15h-12.96v69.26Z"/>
        <path class="cls-1" d="M317.12,323.45c17.29,0,29.98,5.37,38.07,16.11,7.11,9.38,10.67,22.47,10.67,39.26v33.7c0,16.42-5.53,30.31-16.57,41.67l22.97,101.3h-33.54l-18.81-87.41h-20.68v87.41h-31.02v-232.04h48.9ZM335.66,379.37c0-13.45-5.91-20.19-17.72-20.19h-18.71v74.26h18.71c4.92,0,9.11-1.97,12.55-5.93,3.45-3.95,5.17-8.7,5.17-14.26v-33.89Z"/>
        <path class="cls-1" d="M436.89,502.15l-7.54,53.33h-32.3l34.96-232.04h42.67l34.46,232.04h-32.61l-7.26-53.33h-32.38ZM453.18,376.6l-11.49,91.48h22.97l-11.49-91.48Z"/>
        <path class="cls-1" d="M569.92,323.26l41.16,156.07v-156.07h31.02v232.22h-33.31l-42.67-148.7v148.7h-31.02v-232.22h34.82Z"/>
        <path class="cls-1" d="M767.14,499.93c0,15.31-4.76,28.4-14.28,39.26-9.52,10.87-21.01,16.3-34.46,16.3h-48.74v-232.22h48.74c13.56,0,25.08,5.43,34.54,16.3,9.46,10.87,14.2,23.89,14.2,39.07v121.3ZM700.68,520.86h18.71c4.92,0,9.08-2.01,12.47-6.02,3.39-4.01,5.09-8.73,5.09-14.17v-121.48c0-5.56-1.72-10.31-5.17-14.26-3.45-3.95-7.58-5.93-12.39-5.93h-18.71v161.85Z"/>
      </g>
      <g>
        <polygon class="cls-1" points="443.76 153.78 451.97 179.03 478.53 179.03 457.04 194.64 465.25 219.9 443.76 204.29 422.28 219.9 430.48 194.64 409 179.03 435.56 179.03 443.76 153.78"/>
        <polygon class="cls-1" points="443.76 652.99 451.97 678.24 478.53 678.24 457.04 693.85 465.25 719.11 443.76 703.5 422.28 719.11 430.48 693.85 409 678.24 435.56 678.24 443.76 652.99"/>
        <path class="cls-1" d="M441.53,883.06C198.07,883.06,0,684.99,0,441.53S198.07,0,441.53,0s441.53,198.07,441.53,441.53-198.07,441.53-441.53,441.53ZM441.53,16.75C207.3,16.75,16.74,207.3,16.74,441.53s190.56,424.79,424.79,424.79,424.78-190.56,424.78-424.79S675.75,16.75,441.53,16.75Z"/>
        <path class="cls-1" d="M441.53,843.98c-221.92,0-402.46-180.54-402.46-402.45S219.61,39.07,441.53,39.07s402.45,180.54,402.45,402.46-180.54,402.45-402.45,402.45ZM441.53,49.12c-216.38,0-392.41,176.03-392.41,392.41s176.03,392.41,392.41,392.41,392.41-176.03,392.41-392.41S657.9,49.12,441.53,49.12Z"/>
        <rect class="cls-1" x="136.2" y="267.37" width="619.44" height="6.7"/>
        <rect class="cls-1" x="136.2" y="608.99" width="619.44" height="6.7"/>
      </g>
    </g>
  </g>
</svg>